<?xml version="1.0" encoding="utf-8"?>
<svg version="1.1" id="logo" xmlns="http://www.w3.org/2000/svg" xmlns:xlink="http://www.w3.org/1999/xlink" x="0px" y="0px"
	 viewBox="0 0 300 170" style="enable-background:new 0 0 300 170;" xml:space="preserve">
<defs>  
  <linearGradient id="logo-gradient" x1="0" y1="0" x2="1" y2="1" gradientTransform="rotate(45)" fx="0">
    <stop stopColor="rgba(239, 71, 111, 1)" offset="0">
      <animate 
        attributeName="stop-color" 
        values="rgba(239, 71, 111, 1); rgba(38, 84, 124, 1); rgba(239, 71, 111, 1)"
        keyTimes="0; 0.5; 1"
        dur="8s" 
        repeatCount="indefinite" 
      />
      <animate 
        attributeName="offset" 
        values="0; 1; 0" 
        dur="8s" 
        repeatCount="indefinite" 
      />
    </stop>
    <stop stopColor="rgba(239, 71, 111, 1)" offset="1">
      <animate 
        attributeName="stop-color" 
        values="rgba(38, 84, 124, 1); rgba(239, 71, 111, 1); rgba(38, 84, 124, 1)"
        keyTimes="0; 0.5; 1"
        dur="16s" 
        repeatCount="indefinite" 
      />
    </stop>
  </linearGradient>
</defs>
<g>
  <path fill="url('#logo-gradient')" d="M300,170L198,0l-32.4,55.2c-9.5,16.3-9.7,36.4-0.3,52.9l0,0c14.4-25.3,51-25.3,65.4,0l18.5,32.3
    C259.5,158.7,279,170,300,170z"/>
  <path fill="url('#logo-gradient')" d="M0,170L102,0l32.5,55.2c9.5,16.3,9.7,36.4,0.3,52.9l0,0c-14.4-25.3-51-25.3-65.4,0l-18.5,32.3
    C40.5,158.7,21,170,0,170z"/>
</g>

</svg>
